<svg width="120" height="120" viewBox="0 0 120 120" fill="none" xmlns="http://www.w3.org/2000/svg">
  <rect width="120" height="120" rx="16" fill="#2E8B57"/>
  <path d="M60 16C35.2 16 15 36.2 15 61C15 85.8 35.2 106 60 106C84.8 106 105 85.8 105 61C105 36.2 84.8 16 60 16ZM60 96C40.7 96 25 80.3 25 61C25 41.7 40.7 26 60 26C79.3 26 95 41.7 95 61C95 80.3 79.3 96 60 96Z" fill="white"/>
  <path d="M60 36C46.2 36 35 47.2 35 61C35 74.8 46.2 86 60 86C73.8 86 85 74.8 85 61C85 47.2 73.8 36 60 36ZM60 76C51.7 76 45 69.3 45 61C45 52.7 51.7 46 60 46C68.3 46 75 52.7 75 61C75 69.3 68.3 76 60 76Z" fill="#A5D6A7"/>
  <path d="M60 48L66 54H54L60 48Z" fill="white"/>
  <path d="M60 74L54 68H66L60 74Z" fill="white"/>
  <path d="M48 60L54 54V66L48 60Z" fill="white"/>
  <path d="M72 60L66 66V54L72 60Z" fill="white"/>
</svg>